<svg width="27" height="28" viewBox="0 0 27 28" fill="none" xmlns="http://www.w3.org/2000/svg">
<path d="M25.5837 9.5037V3.63953C25.5837 1.81828 24.8103 1.08203 22.8891 1.08203H18.0074C16.0862 1.08203 15.3128 1.81828 15.3128 3.63953V9.49078C15.3128 11.3249 16.0862 12.0483 18.0074 12.0483H22.8891C24.8103 12.0612 25.5837 11.3249 25.5837 9.5037Z" fill="#F2AC57" fill-opacity="0.5"/>
<path d="M25.5837 24.0355V18.8172C25.5837 16.7634 24.8103 15.9368 22.8891 15.9368H18.0074C16.0862 15.9368 15.3128 16.7634 15.3128 18.8172V24.0355C15.3128 26.0893 16.0862 26.9159 18.0074 26.9159H22.8891C24.8103 26.9159 25.5837 26.0893 25.5837 24.0355Z" fill="#F2AC57" fill-opacity="0.5"/>
<path d="M11.6872 9.5037V3.63953C11.6872 1.81828 10.9139 1.08203 8.9926 1.08203H4.11093C2.18968 1.08203 1.41635 1.81828 1.41635 3.63953V9.49078C1.41635 11.3249 2.18968 12.0483 4.11093 12.0483H8.9926C10.9139 12.0612 11.6872 11.3249 11.6872 9.5037Z" fill="#F2AC57" fill-opacity="0.5"/>
<path d="M6.26484 15.0821V20.3699M6.26484 20.3699V26.5821M6.26484 20.3699H1.41636M6.26484 20.3699H11.6872M25.5837 9.5037V3.63953C25.5837 1.81828 24.8103 1.08203 22.8891 1.08203H18.0074C16.0862 1.08203 15.3128 1.81828 15.3128 3.63953V9.49078C15.3128 11.3249 16.0862 12.0483 18.0074 12.0483H22.8891C24.8103 12.0612 25.5837 11.3249 25.5837 9.5037ZM25.5837 24.0355V18.8172C25.5837 16.7634 24.8103 15.9368 22.8891 15.9368H18.0074C16.0862 15.9368 15.3128 16.7634 15.3128 18.8172V24.0355C15.3128 26.0893 16.0862 26.9159 18.0074 26.9159H22.8891C24.8103 26.9159 25.5837 26.0893 25.5837 24.0355ZM11.6872 9.5037V3.63953C11.6872 1.81828 10.9139 1.08203 8.9926 1.08203H4.11093C2.18968 1.08203 1.41635 1.81828 1.41635 3.63953V9.49078C1.41635 11.3249 2.18968 12.0483 4.11093 12.0483H8.9926C10.9139 12.0612 11.6872 11.3249 11.6872 9.5037Z" stroke="#F2AC57" stroke-opacity="0.5" stroke-width="1.6" stroke-linecap="round" stroke-linejoin="round"/>
</svg>
