<svg width="9" height="16" viewBox="0 0 9 16" fill="none" xmlns="http://www.w3.org/2000/svg">
<path opacity="0.8" d="M0.428572 8C0.428572 8.17937 0.461288 8.35292 0.526719 8.52063C0.59215 8.68924 0.67939 8.8296 0.788442 8.9417L6.80807 15.13C7.04798 15.3767 7.35333 15.5 7.7241 15.5C8.09488 15.5 8.40022 15.3767 8.64013 15.13C8.88004 14.8834 9 14.5695 9 14.1883C9 13.8072 8.88004 13.4933 8.64013 13.2466L3.53653 8L8.64013 2.75336C8.88004 2.50673 9 2.19283 9 1.81166C9 1.43049 8.88004 1.11659 8.64013 0.869958C8.40022 0.623321 8.09488 0.5 7.7241 0.5C7.35333 0.5 7.04798 0.623321 6.80807 0.869958L0.788442 7.0583C0.65758 7.19283 0.565104 7.33857 0.511015 7.49552C0.456054 7.65247 0.428572 7.82063 0.428572 8Z" fill="#F2AC57"/>
</svg>
