<svg width="9" height="16" viewBox="0 0 9 16" fill="none" xmlns="http://www.w3.org/2000/svg">
<path opacity="0.8" d="M8.57143 8C8.57143 8.17937 8.53871 8.35292 8.47328 8.52063C8.40785 8.68924 8.32061 8.8296 8.21156 8.9417L2.19193 15.13C1.95202 15.3767 1.64667 15.5 1.2759 15.5C0.905125 15.5 0.599781 15.3767 0.359869 15.13C0.119956 14.8834 0 14.5695 0 14.1883C0 13.8072 0.119956 13.4933 0.359869 13.2466L5.46347 8L0.359869 2.75336C0.119956 2.50673 0 2.19283 0 1.81166C0 1.43049 0.119956 1.11659 0.359869 0.869958C0.599781 0.623321 0.905125 0.5 1.2759 0.5C1.64667 0.5 1.95202 0.623321 2.19193 0.869958L8.21156 7.0583C8.34242 7.19283 8.4349 7.33857 8.48899 7.49552C8.54395 7.65247 8.57143 7.82063 8.57143 8Z" fill="#F2AC57"/>
</svg>
