<svg width="32" height="32" viewBox="0 0 32 32" fill="none" xmlns="http://www.w3.org/2000/svg">
<g opacity="0.5">
<path d="M19.925 5.16797C21.745 5.16797 22.655 5.16797 23.3505 5.5363C23.9673 5.86506 24.4644 6.38035 24.7708 7.00855C25.125 7.72897 25.125 8.67255 25.125 10.5608V21.4418C25.125 23.3301 25.125 24.2736 24.7708 24.9951C24.4644 25.6233 23.9673 26.1386 23.3505 26.4674C22.655 26.8346 21.745 26.8346 19.925 26.8346H14.075C12.255 26.8346 11.345 26.8346 10.6495 26.4663C10.0327 26.1375 9.53563 25.6223 9.22925 24.9941C8.875 24.2736 8.875 23.3301 8.875 21.4418V10.5608C8.875 8.67255 8.875 7.72897 9.22925 7.00747C9.53581 6.37967 10.0329 5.86478 10.6495 5.5363C11.345 5.16797 12.255 5.16797 14.075 5.16797H19.925Z" stroke="#F2AC57" stroke-opacity="0.5" stroke-width="1.5" stroke-linecap="round" stroke-linejoin="round"/>
<path d="M14.2916 25.75V19.7917C14.2916 19.217 14.5199 18.6659 14.9262 18.2596C15.3326 17.8533 15.8837 17.625 16.4583 17.625H17.5416C18.1163 17.625 18.6674 17.8533 19.0737 18.2596C19.48 18.6659 19.7083 19.217 19.7083 19.7917V25.75M14.8333 9.5H12.6666M14.8333 13.8333H12.6666M21.3333 9.5H19.1666M21.3333 13.8333H19.1666" stroke="#F2AC57" stroke-opacity="0.5" stroke-width="1.5" stroke-linecap="round" stroke-linejoin="round"/>
</g>
</svg>
