<svg width="26" height="26" viewBox="0 0 26 26" fill="none" xmlns="http://www.w3.org/2000/svg">
<path d="M9.75005 13.2897V23.5629C9.75006 23.7015 9.7855 23.8377 9.853 23.9587C9.9205 24.0797 10.0178 24.1815 10.1357 24.2542C10.2536 24.327 10.3882 24.3685 10.5266 24.3746C10.665 24.3807 10.8027 24.3514 10.9266 24.2893L15.8016 21.8518C15.9363 21.7843 16.0497 21.6805 16.1289 21.5523C16.2081 21.424 16.25 21.2762 16.2501 21.1254V13.2897L23.3789 4.57804C23.4466 4.49546 23.4973 4.40036 23.5282 4.29817C23.5591 4.19599 23.5695 4.08872 23.559 3.98249C23.5484 3.87626 23.517 3.77315 23.4666 3.67904C23.4162 3.58494 23.3478 3.50169 23.2652 3.43404C23.1826 3.3664 23.0875 3.31568 22.9853 3.28478C22.8831 3.25389 22.7759 3.24343 22.6696 3.25399C22.5634 3.26455 22.4603 3.29593 22.3662 3.34635C22.2721 3.39676 22.1888 3.46521 22.1212 3.54779L14.8087 12.4853C14.6898 12.6306 14.6249 12.8127 14.6251 13.0004V20.6233L11.3751 22.2483V13.0004C11.3752 12.8127 11.3103 12.6306 11.1914 12.4853L4.96443 4.87542H17.8751C18.0905 4.87542 18.2972 4.78982 18.4496 4.63744C18.602 4.48507 18.6876 4.27841 18.6876 4.06292C18.6876 3.84743 18.602 3.64077 18.4496 3.4884C18.2972 3.33602 18.0905 3.25042 17.8751 3.25042H3.25005C3.09613 3.25032 2.94535 3.29394 2.81526 3.3762C2.68517 3.45847 2.58112 3.57599 2.51523 3.7151C2.44933 3.8542 2.42431 4.00916 2.44307 4.16194C2.46183 4.31471 2.52359 4.45901 2.62118 4.57804L9.75005 13.2897Z" fill="#F2AC57"/>
</svg>
