<svg width="32" height="32" viewBox="0 0 32 32" fill="none" xmlns="http://www.w3.org/2000/svg">
<g opacity="0.5">
<path d="M16.9178 25.7798C21.4573 23.4684 25 19.6408 25 14.9869C25 10.0236 20.9706 6 16 6C11.0294 6 7 10.0236 7 14.9869C7 19.6408 10.5427 23.4684 15.0822 25.7798C15.6589 26.0734 16.3411 26.0734 16.9178 25.7798Z" stroke="#F2AC57" stroke-opacity="0.5" stroke-width="1.5" stroke-linecap="round" stroke-linejoin="round"/>
<path d="M19.375 14.9869C19.375 16.8481 17.864 18.3569 16 18.3569C14.136 18.3569 12.625 16.8481 12.625 14.9869C12.625 13.1256 14.136 11.6168 16 11.6168C17.864 11.6168 19.375 13.1256 19.375 14.9869Z" stroke="#F2AC57" stroke-opacity="0.5" stroke-width="1.5" stroke-linecap="round" stroke-linejoin="round"/>
</g>
</svg>
