<svg width="27" height="26" viewBox="0 0 27 26" fill="none" xmlns="http://www.w3.org/2000/svg">
<path d="M15.4024 0.361103C14.1825 -0.120368 12.818 -0.120368 11.5982 0.361103L1.47609 4.35626C1.0401 4.52818 0.66675 4.8229 0.403876 5.20267C0.141002 5.58243 0.000572202 6.02995 0.000574937 6.48789V12.3045C0.629662 11.9917 1.31005 11.7631 2.02553 11.6343V7.24486L12.4878 11.2059V24.3636L12.8078 24.6764C13.1007 24.9602 13.4666 25.6384 13.5733 25.9998C14.2566 26.0117 14.7692 25.551 15.4024 25.3006L25.5245 21.3054C25.9607 21.1334 26.3342 20.8385 26.5971 20.4585C26.86 20.0785 27.0003 19.6307 27 19.1725V6.4892C27 6.03126 26.8596 5.58375 26.5967 5.20398C26.3338 4.82422 25.9605 4.5295 25.5245 4.35757L15.4024 0.361103ZM12.3596 2.18784C13.0912 1.89924 13.9094 1.89924 14.641 2.18784L23.54 5.69937L19.9356 7.05431L9.77572 3.20765L12.3596 2.18784ZM7.04067 4.28792L17.1331 8.1096L13.5016 9.47374L3.49835 5.68623L7.04067 4.28792ZM24.7644 19.48L14.641 23.4752L14.5128 23.5212V17.3642V11.2072L24.975 7.27509V19.1738C24.9751 19.2393 24.9551 19.3033 24.9176 19.3576C24.8801 19.4119 24.8268 19.4554 24.7644 19.48Z" fill="#F2AC57" fill-opacity="0.5"/>
<path fill-rule="evenodd" clip-rule="evenodd" d="M2.02496 19.4281L2.02553 11.6343L0 12L3.93693e-07 19.4268C-0.000271245 19.885 0.140031 20.3328 0.402922 20.7128C0.665813 21.0928 1.03931 21.3878 1.47552 21.5598L11.5976 25.5549C12.2308 25.8053 12.9418 26.0117 13.6251 25.9998C13.7318 25.6384 13.8993 25.2145 14.1922 24.9307L14.5122 24.6179L13.6251 25.9998L13.0781 24.9307L12.4878 24.3636L12.4872 23.7755L12.359 23.7295L2.23555 19.7343C2.17324 19.7097 2.11991 19.6662 2.08238 19.6119C2.04486 19.5576 2.02486 19.4936 2.02496 19.4281Z" fill="#F2AC57" fill-opacity="0.5"/>
</svg>
