<svg width="40" height="41" viewBox="0 0 40 41" fill="none" xmlns="http://www.w3.org/2000/svg">
<path d="M25.4556 0.792526C25.6402 0.849334 25.6402 0.849334 25.8296 0.90772C30.4026 2.36421 34.2213 5.27244 36.8171 9.31368C36.9292 9.48726 37.0412 9.66084 37.1564 9.83916C38.0559 11.3193 38.6697 12.8705 39.1841 14.5211C39.2204 14.6347 39.2551 14.7483 39.293 14.8666C40.2161 17.9532 40.2335 22.0086 39.3419 25.0936C39.2962 25.2577 39.2962 25.2577 39.2488 25.4266C37.7655 30.675 34.2797 34.9813 29.5379 37.6544C28.0766 38.4466 26.5807 39.0099 24.9822 39.4533C24.796 39.507 24.6114 39.5606 24.4189 39.6159C19.1784 40.8593 13.5891 39.6758 9.04449 36.9285C4.5046 33.9288 1.41647 29.3558 0.277164 24.0474C0.0262638 22.7282 -0.00687408 21.4216 0.00101588 20.0835C0.00101588 19.9714 0.00101588 19.8594 0.00101588 19.7442C0.00890584 18.1173 0.0672911 16.5709 0.523331 14.9945C0.569093 14.8303 0.569092 14.8303 0.616432 14.6615C2.09028 9.44781 5.52557 5.16041 10.2453 2.5078C14.7395 0.0508702 20.5149 -0.760218 25.4556 0.792526ZM6.43133 8.01657C2.92977 12.0767 1.70367 16.6687 1.94352 21.9376C2.3396 26.6053 4.8707 30.9306 8.37384 33.9493C12.3819 37.1921 17.108 38.4466 22.1986 38C26.9657 37.4177 31.2405 34.8219 34.2324 31.1152C37.2322 27.1355 38.4156 22.3337 37.8491 17.4009C37.1517 12.5707 34.3728 8.28483 30.5052 5.3687C22.8961 0.0556035 12.707 1.21385 6.43133 8.01657Z" fill="#F2AC57"/>
<path fill-rule="evenodd" clip-rule="evenodd" d="M20.5638 5.3687C20.8747 5.83105 20.9157 6.2003 20.8984 6.74945C20.8969 6.86967 20.8939 6.98989 20.8909 7.11284L20.8905 7.13132C20.8889 7.17851 20.887 7.22533 20.8851 7.27233C20.8831 7.32118 20.881 7.37023 20.8794 7.42009C20.9675 7.43591 21.0555 7.45143 21.144 7.46704C21.2587 7.48724 21.3742 7.50761 21.4917 7.52897C23.1675 7.914 24.3778 8.76138 25.4556 10.1027C26.273 11.4298 26.9626 12.9304 26.718 14.5211C26.4624 14.9345 26.4624 14.9345 26.0868 15.1523C25.8371 15.1474 25.714 15.1451 25.5941 15.1246C25.4775 15.1046 25.3639 15.0675 25.14 14.9945C24.7992 14.4832 24.766 14.2307 24.6966 13.6342C24.4915 12.3119 23.966 11.2846 22.9308 10.4183C22.2633 9.95277 21.64 9.61823 20.8794 9.31368V19.255L22.2996 19.5706C23.9723 20.1482 25.2031 21.3569 26.0079 22.9144C26.8853 24.8648 26.9721 26.6937 26.2446 28.723C25.5061 30.3341 24.3147 31.6281 22.6957 32.3634C22.0961 32.5859 21.5075 32.7137 20.8794 32.8258C20.8837 32.8766 20.8874 32.9279 20.8913 32.9796C20.8945 33.0242 20.8979 33.0692 20.9015 33.1145C20.9296 33.742 20.9405 33.9839 20.8696 34.1987C20.8251 34.3334 20.7485 34.4575 20.6238 34.6594C20.2482 34.8772 20.2482 34.8772 19.7559 34.8772C19.3014 34.7194 19.3014 34.7194 19.0837 34.4732C18.9484 33.9412 18.9649 33.4506 18.9831 32.9076L18.9858 32.8258L18.9785 32.8245C18.6828 32.7721 18.6803 32.7717 18.3736 32.7169C16.5336 32.294 15.1229 31.2762 14.1114 29.6698C13.4644 28.4405 12.9816 27.1339 13.1473 25.7248C13.4029 25.3303 13.4029 25.3303 13.7785 25.0936C14.2708 25.1031 14.2708 25.1031 14.7253 25.2514C15.0661 25.7627 15.0992 26.0151 15.1687 26.6116C15.4227 28.2196 16.1092 29.1838 17.4078 30.1432L18.9858 30.7744V20.9908L17.5656 20.6752C15.9009 20.1008 14.6685 18.8953 13.8574 17.352C13.01 15.4726 12.8506 13.6074 13.5796 11.6523C14.3197 9.9938 15.5064 8.65093 17.1648 7.88718C17.7645 7.65995 18.3546 7.53213 18.9858 7.42009C18.9843 7.37487 18.9825 7.32928 18.9806 7.28333L18.9805 7.28219C18.9785 7.23232 18.9764 7.18203 18.9748 7.13132C18.9716 7.00508 18.9685 6.87884 18.9669 6.74945C18.9645 6.68509 18.9624 6.62019 18.9604 6.5554C18.9585 6.49487 18.9566 6.43395 18.9543 6.37231C18.989 5.96045 19.0821 5.71586 19.3014 5.3687C19.7474 5.1457 20.0424 5.22628 20.4981 5.35078L20.5638 5.3687ZM20.881 21.1504C22.4716 21.548 23.461 22.042 24.3178 23.4606C24.979 24.7403 25.17 25.8938 24.807 27.2951C24.3699 28.6096 23.7009 29.5122 22.5442 30.2728C22.1434 30.4605 22.1434 30.4605 20.881 30.7761V21.1504ZM18.9858 19.0972V9.31368C18.4777 9.31368 18.1621 9.40205 17.7203 9.6498C16.2228 10.6108 15.3091 11.6586 14.8831 13.4165C14.7347 14.6725 15.0188 16.0138 15.7415 17.0585C16.6488 18.1568 17.5704 18.8621 18.9858 19.0972Z" fill="#F2AC57"/>
</svg>
