<svg width="37" height="38" viewBox="0 0 37 38" fill="none" xmlns="http://www.w3.org/2000/svg">
<g opacity="0.5">
<path d="M20.6729 4.37282C19.2798 3.80802 17.7215 3.80802 16.3284 4.37282L4.76903 9.05949C4.27112 9.26117 3.84476 9.6069 3.54455 10.0524C3.24435 10.4979 3.08398 11.0229 3.08398 11.5601V18.3835C3.8024 18.0166 4.5794 17.7483 5.39648 17.5972V12.4481L17.3444 17.0947V32.5298L17.7098 32.8967C18.0443 33.2297 18.2725 33.629 18.3943 34.053C19.1746 34.0669 19.9497 33.9227 20.6729 33.629L32.2323 28.9424C32.7304 28.7406 33.157 28.3946 33.4572 27.9488C33.7574 27.503 33.9176 26.9777 33.9173 26.4402V11.5616C33.9173 11.0244 33.757 10.4994 33.4568 10.0539C33.1566 9.60845 32.7302 9.26271 32.2323 9.06103L20.6729 4.37282ZM17.1979 6.51574C18.0334 6.17719 18.9679 6.17719 19.8034 6.51574L29.966 10.6351L25.8498 12.2245L14.2472 7.71207L17.1979 6.51574ZM11.1238 8.97932L22.6493 13.4625L18.5022 15.0627L7.07844 10.6197L11.1238 8.97932ZM31.3643 26.801L19.8034 31.4877L19.6569 31.5416V17.0962L31.6048 12.4835V26.4418C31.6049 26.5186 31.5821 26.5937 31.5392 26.6574C31.4964 26.7211 31.4355 26.7721 31.3643 26.801Z" fill="#F2AC57"/>
<path d="M7.84837 19.5625V33.017M1.12109 26.2898H14.5756" stroke="#F2AC57" stroke-width="1.5" stroke-linecap="round" stroke-linejoin="round"/>
</g>
</svg>
