<svg width="35" height="36" viewBox="0 0 35 36" fill="none" xmlns="http://www.w3.org/2000/svg">
<path d="M11.4236 20.3333C12.043 21.5046 13.095 22.4736 14.4213 23.0945C15.7475 23.7154 17.2762 23.9544 18.7768 23.7756C20.2774 23.5968 21.6688 23.0099 22.7413 22.1032L24.7917 20.545M24.7917 23.8333V20.3333H21.1458M23.5764 15.6667C22.957 14.4954 21.905 13.5264 20.5787 12.9055C19.2525 12.2847 17.7239 12.0456 16.2232 12.2244C14.7226 12.4032 13.3312 12.9901 12.2587 13.8968L10.2083 15.455M10.2083 12.1667V15.6667H13.8542M30.625 18C30.625 25.2487 24.7487 31.125 17.5 31.125C10.2513 31.125 4.375 25.2487 4.375 18C4.375 10.7513 10.2513 4.875 17.5 4.875C24.7487 4.875 30.625 10.7513 30.625 18Z" stroke="#F2AC57" stroke-width="1.5" stroke-linecap="round" stroke-linejoin="round"/>
</svg>
