<svg width="33" height="32" viewBox="0 0 33 32" fill="none" xmlns="http://www.w3.org/2000/svg">
<g opacity="0.5">
<path d="M7.16666 9.33398H9.83332V22.6673H7.16666V9.33398ZM19.1667 9.33398H20.5V22.6673H19.1667V9.33398ZM13.8333 9.33398H17.8333V22.6673H13.8333V9.33398ZM11.1667 9.33398H12.5V22.6673H11.1667V9.33398ZM21.8333 9.33398H25.8333V22.6673H21.8333V9.33398Z" fill="#F2AC57"/>
<path d="M5.83332 6.66667H11.1667V4H5.83332C4.36266 4 3.16666 5.196 3.16666 6.66667V12H5.83332V6.66667ZM5.83332 28H11.1667V25.3333H5.83332V20H3.16666V25.3333C3.16666 26.804 4.36266 28 5.83332 28ZM27.1667 4H21.8333V6.66667H27.1667V12H29.8333V6.66667C29.8333 5.196 28.6373 4 27.1667 4ZM27.1667 25.3333H21.8333V28H27.1667C28.6373 28 29.8333 26.804 29.8333 25.3333V20H27.1667V25.3333Z" fill="#F2AC57"/>
</g>
</svg>
