<svg width="49" height="48" viewBox="0 0 49 48" fill="none" xmlns="http://www.w3.org/2000/svg">
<g opacity="0.5">
<path fill-rule="evenodd" clip-rule="evenodd" d="M22.3773 8.56167C23.2831 8.56167 24.1733 8.65225 25.0306 8.82716C25.4365 8.90958 25.793 9.14987 26.0218 9.49516C26.2505 9.84046 26.3327 10.2625 26.2503 10.6684C26.1679 11.0743 25.9276 11.4308 25.5823 11.6595C25.237 11.8883 24.815 11.9705 24.4091 11.888C22.4421 11.4868 20.4004 11.6777 18.542 12.4368C16.6835 13.1958 15.0919 14.4889 13.9683 16.1524C12.8447 17.8159 12.2395 19.7753 12.2294 21.7827C12.2192 23.7901 12.8045 25.7555 13.9112 27.4303C15.0179 29.1051 16.5964 30.4142 18.447 31.192C20.2977 31.9698 22.3374 32.1814 24.3083 31.8001C26.2792 31.4188 28.0928 30.4616 29.5198 29.0497C30.9467 27.6377 31.923 25.8344 32.3252 23.8676C32.366 23.6666 32.446 23.4757 32.5606 23.3056C32.6752 23.1355 32.8222 22.9897 32.9932 22.8765C33.1642 22.7632 33.3558 22.6847 33.5571 22.6455C33.7584 22.6063 33.9654 22.6071 34.1664 22.648C34.3674 22.6888 34.5584 22.7688 34.7284 22.8834C34.8985 22.998 35.0443 23.145 35.1576 23.316C35.2708 23.4869 35.3493 23.6785 35.3885 23.8798C35.4277 24.0811 35.4269 24.2882 35.3861 24.4892C35.0057 26.3517 34.2298 28.1107 33.1107 29.6474L32.8031 30.0534L38.5063 35.7566C38.7893 36.037 38.9545 36.415 38.9681 36.8132C38.9816 37.2114 38.8424 37.5997 38.579 37.8986C38.3156 38.1975 37.9479 38.3845 37.5511 38.4212C37.1544 38.4579 36.7587 38.3416 36.4449 38.096L36.2981 37.9648L30.5949 32.2616C28.9324 33.5718 26.9807 34.4654 24.9026 34.8679C22.8245 35.2704 20.6803 35.1701 18.6489 34.5754C16.6174 33.9807 14.7577 32.9088 13.2247 31.4491C11.6918 29.9895 10.5302 28.1844 9.83676 26.1845C9.14333 24.1846 8.93822 22.0479 9.23853 19.9526C9.53884 17.8573 10.3359 15.8642 11.5631 14.1396C12.7904 12.415 14.4123 11.0089 16.2935 10.0385C18.1747 9.06822 20.2606 8.56185 22.3773 8.56167ZM35.6516 7C35.9437 7 36.23 7.08195 36.4779 7.23655C36.7258 7.39114 36.9254 7.61218 37.0539 7.87454L37.1289 8.05725L37.3319 8.64756C37.5462 9.27564 37.8914 9.85104 38.3448 10.3356C38.7982 10.8202 39.3493 11.203 39.9618 11.4586L40.2507 11.5679L40.841 11.7693C41.1333 11.8691 41.3895 12.0533 41.5772 12.2986C41.7648 12.5439 41.8755 12.8394 41.8952 13.1476C41.915 13.4559 41.8428 13.7631 41.688 14.0303C41.5331 14.2976 41.3025 14.5129 41.0253 14.6491L40.841 14.724L40.2507 14.9271C39.6226 15.1413 39.0472 15.4866 38.5626 15.9399C38.078 16.3933 37.6952 16.9445 37.4397 17.5569L37.3304 17.8458L37.1289 18.4361C37.029 18.7284 36.8447 18.9844 36.5992 19.1719C36.3538 19.3594 36.0583 19.4699 35.7501 19.4895C35.4418 19.5091 35.1347 19.4368 34.8676 19.2818C34.6004 19.1268 34.3852 18.8961 34.2492 18.6188L34.1742 18.4361L33.9712 17.8458C33.7569 17.2177 33.4117 16.6423 32.9583 16.1577C32.5049 15.6731 31.9538 15.2904 31.3413 15.0348L31.0524 14.9255L30.4621 14.724C30.1698 14.6243 29.9136 14.4401 29.7259 14.1948C29.5383 13.9495 29.4276 13.654 29.4079 13.3457C29.3881 13.0375 29.4603 12.7303 29.6151 12.4631C29.77 12.1958 30.0006 11.9805 30.2778 11.8443L30.4621 11.7693L31.0524 11.5663C31.6805 11.3521 32.2559 11.0068 32.7405 10.5534C33.2251 10.1001 33.6079 9.54891 33.8634 8.93647L33.9728 8.64756L34.1742 8.05725C34.2794 7.74896 34.4784 7.48128 34.7433 7.2917C35.0082 7.10212 35.3258 7.00013 35.6516 7ZM35.6516 11.9911C35.2821 12.456 34.8609 12.8773 34.396 13.2467C34.8624 13.6163 35.2809 14.0348 35.6516 14.5023C36.0211 14.0359 36.4397 13.6173 36.9071 13.2467C36.4422 12.8773 36.021 12.456 35.6516 11.9911Z" fill="#F2AC57"/>
</g>
</svg>
