<svg width="39" height="38" viewBox="0 0 39 38" fill="none" xmlns="http://www.w3.org/2000/svg">
<g filter="url(#filter0_d_1266_913)">
<path d="M29.5208 8.83333V18.0833M24.8958 13.4583H34.1458M8.70834 28.8752H25.6667C27.7953 28.8752 29.5208 27.1496 29.5208 25.021C29.5208 18.7298 20.2708 18.8543 17.1875 18.8543C14.1042 18.8543 4.85417 18.7298 4.85417 25.021C4.85417 27.1496 6.57974 28.8752 8.70834 28.8752ZM23.3542 7.29167C23.3542 10.6974 20.5933 13.4583 17.1875 13.4583C13.7817 13.4583 11.0208 10.6974 11.0208 7.29167C11.0208 3.88591 13.7817 1.125 17.1875 1.125C20.5933 1.125 23.3542 3.88591 23.3542 7.29167Z" stroke="#F2AC57" stroke-width="1.5" stroke-linecap="round" stroke-linejoin="round" shape-rendering="crispEdges"/>
</g>
<defs>
<filter id="filter0_d_1266_913" x="0.104172" y="0.375" width="38.7917" height="37.25" filterUnits="userSpaceOnUse" color-interpolation-filters="sRGB">
<feFlood flood-opacity="0" result="BackgroundImageFix"/>
<feColorMatrix in="SourceAlpha" type="matrix" values="0 0 0 0 0 0 0 0 0 0 0 0 0 0 0 0 0 0 127 0" result="hardAlpha"/>
<feOffset dy="4"/>
<feGaussianBlur stdDeviation="2"/>
<feComposite in2="hardAlpha" operator="out"/>
<feColorMatrix type="matrix" values="0 0 0 0 0 0 0 0 0 0 0 0 0 0 0 0 0 0 0.25 0"/>
<feBlend mode="normal" in2="BackgroundImageFix" result="effect1_dropShadow_1266_913"/>
<feBlend mode="normal" in="SourceGraphic" in2="effect1_dropShadow_1266_913" result="shape"/>
</filter>
</defs>
</svg>
